{
    "asset" : {
        "generator" : "Khronos glTF Blender I/O v1.7.33",
        "version" : "2.0"
    },
    "scene" : 0,
    "scenes" : [
        {
            "name" : "Scene",
            "nodes" : [
                0,
                1,
                2
            ]
        }
    ],
    "nodes" : [
        {
            "mesh" : 0,
            "name" : "Cube"
        },
        {
            "mesh" : 1,
            "name" : "Cube.001"
        },
        {
            "mesh" : 2,
            "name" : "Cylinder"
        }
    ],
    "materials" : [
        {
            "doubleSided" : true,
            "name" : "Wood",
            "pbrMetallicRoughness" : {}
        },
        {
            "doubleSided" : true,
            "name" : "Painted rusty metal",
            "pbrMetallicRoughness" : {
                "metallicFactor" : 0
            }
        }
    ],
    "meshes" : [
        {
            "name" : "Cube.002",
            "primitives" : [
                {
                    "attributes" : {
                        "POSITION" : 0,
                        "NORMAL" : 1,
                        "TEXCOORD_0" : 2,
                        "TEXCOORD_1" : 3
                    },
                    "indices" : 4,
                    "material" : 0
                }
            ]
        },
        {
            "name" : "Cube.003",
            "primitives" : [
                {
                    "attributes" : {
                        "POSITION" : 5,
                        "NORMAL" : 6,
                        "TEXCOORD_0" : 7,
                        "TEXCOORD_1" : 8
                    },
                    "indices" : 9,
                    "material" : 0
                }
            ]
        },
        {
            "name" : "Cylinder",
            "primitives" : [
                {
                    "attributes" : {
                        "POSITION" : 10,
                        "NORMAL" : 11,
                        "TEXCOORD_0" : 12,
                        "TEXCOORD_1" : 13
                    },
                    "indices" : 14,
                    "material" : 1
                }
            ]
        }
    ],
    "accessors" : [
        {
            "bufferView" : 0,
            "componentType" : 5126,
            "count" : 219,
            "max" : [
                2.134873151779175,
                -0.08872067928314209,
                1.870976448059082
            ],
            "min" : [
                -2.134873151779175,
                -2.0887207984924316,
                1.367966651916504
            ],
            "type" : "VEC3"
        },
        {
            "bufferView" : 1,
            "componentType" : 5126,
            "count" : 219,
            "type" : "VEC3"
        },
        {
            "bufferView" : 2,
            "componentType" : 5126,
            "count" : 219,
            "type" : "VEC2"
        },
        {
            "bufferView" : 3,
            "componentType" : 5126,
            "count" : 219,
            "type" : "VEC2"
        },
        {
            "bufferView" : 4,
            "componentType" : 5123,
            "count" : 444,
            "type" : "SCALAR"
        },
        {
            "bufferView" : 5,
            "componentType" : 5126,
            "count" : 201,
            "max" : [
                2.134873151779175,
                -0.20212912559509277,
                -5.205708026885986
            ],
            "min" : [
                -2.134873151779175,
                -2.202129364013672,
                -5.7087178230285645
            ],
            "type" : "VEC3"
        },
        {
            "bufferView" : 6,
            "componentType" : 5126,
            "count" : 201,
            "type" : "VEC3"
        },
        {
            "bufferView" : 7,
            "componentType" : 5126,
            "count" : 201,
            "type" : "VEC2"
        },
        {
            "bufferView" : 8,
            "componentType" : 5126,
            "count" : 201,
            "type" : "VEC2"
        },
        {
            "bufferView" : 9,
            "componentType" : 5123,
            "count" : 444,
            "type" : "SCALAR"
        },
        {
            "bufferView" : 10,
            "componentType" : 5126,
            "count" : 3853,
            "max" : [
                0.8765845894813538,
                0.8637601733207703,
                2.5254287719726562
            ],
            "min" : [
                -0.876584529876709,
                -0.8894088864326477,
                -7.577427864074707
            ],
            "type" : "VEC3"
        },
        {
            "bufferView" : 11,
            "componentType" : 5126,
            "count" : 3853,
            "type" : "VEC3"
        },
        {
            "bufferView" : 12,
            "componentType" : 5126,
            "count" : 3853,
            "type" : "VEC2"
        },
        {
            "bufferView" : 13,
            "componentType" : 5126,
            "count" : 3853,
            "type" : "VEC2"
        },
        {
            "bufferView" : 14,
            "componentType" : 5123,
            "count" : 14976,
            "type" : "SCALAR"
        }
    ],
    "bufferViews" : [
        {
            "buffer" : 0,
            "byteLength" : 2628,
            "byteOffset" : 0
        },
        {
            "buffer" : 0,
            "byteLength" : 2628,
            "byteOffset" : 2628
        },
        {
            "buffer" : 0,
            "byteLength" : 1752,
            "byteOffset" : 5256
        },
        {
            "buffer" : 0,
            "byteLength" : 1752,
            "byteOffset" : 7008
        },
        {
            "buffer" : 0,
            "byteLength" : 888,
            "byteOffset" : 8760
        },
        {
            "buffer" : 0,
            "byteLength" : 2412,
            "byteOffset" : 9648
        },
        {
            "buffer" : 0,
            "byteLength" : 2412,
            "byteOffset" : 12060
        },
        {
            "buffer" : 0,
            "byteLength" : 1608,
            "byteOffset" : 14472
        },
        {
            "buffer" : 0,
            "byteLength" : 1608,
            "byteOffset" : 16080
        },
        {
            "buffer" : 0,
            "byteLength" : 888,
            "byteOffset" : 17688
        },
        {
            "buffer" : 0,
            "byteLength" : 46236,
            "byteOffset" : 18576
        },
        {
            "buffer" : 0,
            "byteLength" : 46236,
            "byteOffset" : 64812
        },
        {
            "buffer" : 0,
            "byteLength" : 30824,
            "byteOffset" : 111048
        },
        {
            "buffer" : 0,
            "byteLength" : 30824,
            "byteOffset" : 141872
        },
        {
            "buffer" : 0,
            "byteLength" : 29952,
            "byteOffset" : 172696
        }
    ],
    "buffers" : [
        {
            "byteLength" : 202648,
            "uri" : "data:application/octet-stream;base64,"
        }
    ]
}
