{
    "asset" : {
        "generator" : "Khronos glTF Blender I/O v1.7.33",
        "version" : "2.0"
    },
    "scene" : 0,
    "scenes" : [
        {
            "name" : "Scene",
            "nodes" : [
                0,
                1,
                2,
                3,
                4,
                5,
                6,
                7,
                8,
                9
            ]
        }
    ],
    "nodes" : [
        {
            "name" : "Cube"
        },
        {
            "name" : "Empty",
            "rotation" : [
                0.5,
                0.5,
                -0.5,
                0.4999999701976776
            ]
        },
        {
            "mesh" : 0,
            "name" : "Cube.001"
        },
        {
            "name" : "Empty.001",
            "rotation" : [
                0.7071068286895752,
                0,
                -0.7071068286895752,
                -1.306566446146462e-07
            ],
            "translation" : [
                1.8113847970962524,
                1.6452341079711914,
                0
            ]
        },
        {
            "mesh" : 1,
            "name" : "Cylinder"
        },
        {
            "mesh" : 2,
            "name" : "Cylinder.001"
        },
        {
            "mesh" : 3,
            "name" : "Cube.002"
        },
        {
            "mesh" : 4,
            "name" : "Cube.003"
        },
        {
            "mesh" : 5,
            "name" : "Cube.004"
        },
        {
            "mesh" : 6,
            "name" : "Cylinder.002"
        }
    ],
    "materials" : [
        {
            "doubleSided" : true,
            "name" : "Material",
            "pbrMetallicRoughness" : {
                "baseColorTexture" : {
                    "index" : 0
                },
                "metallicFactor" : 0.8661417365074158,
                "roughnessFactor" : 0.35039371252059937
            }
        },
        {
            "doubleSided" : true,
            "name" : "Rubber 02",
            "normalTexture" : {
                "index" : 1
            },
            "pbrMetallicRoughness" : {
                "baseColorTexture" : {
                    "index" : 2
                },
                "metallicFactor" : 0,
                "metallicRoughnessTexture" : {
                    "index" : 3
                }
            }
        },
        {
            "doubleSided" : true,
            "name" : "Black Metal Paint",
            "pbrMetallicRoughness" : {}
        },
        {
            "doubleSided" : true,
            "name" : "Material.002",
            "pbrMetallicRoughness" : {}
        }
    ],
    "meshes" : [
        {
            "name" : "Cube.002",
            "primitives" : [
                {
                    "attributes" : {
                        "POSITION" : 0,
                        "NORMAL" : 1,
                        "TEXCOORD_0" : 2,
                        "TEXCOORD_1" : 3
                    },
                    "indices" : 4,
                    "material" : 0
                }
            ]
        },
        {
            "name" : "Cylinder",
            "primitives" : [
                {
                    "attributes" : {
                        "POSITION" : 5,
                        "NORMAL" : 6,
                        "TEXCOORD_0" : 7,
                        "TEXCOORD_1" : 8
                    },
                    "indices" : 9,
                    "material" : 1
                },
                {
                    "attributes" : {
                        "POSITION" : 10,
                        "NORMAL" : 11,
                        "TEXCOORD_0" : 12,
                        "TEXCOORD_1" : 13
                    },
                    "indices" : 14,
                    "material" : 2
                }
            ]
        },
        {
            "name" : "Cylinder.002",
            "primitives" : [
                {
                    "attributes" : {
                        "POSITION" : 15,
                        "NORMAL" : 16,
                        "TEXCOORD_0" : 17
                    },
                    "indices" : 18,
                    "material" : 2
                }
            ]
        },
        {
            "name" : "Cube.003",
            "primitives" : [
                {
                    "attributes" : {
                        "POSITION" : 19,
                        "NORMAL" : 20,
                        "TEXCOORD_0" : 21
                    },
                    "indices" : 22
                }
            ]
        },
        {
            "name" : "Cube.004",
            "primitives" : [
                {
                    "attributes" : {
                        "POSITION" : 23,
                        "NORMAL" : 24,
                        "TEXCOORD_0" : 25
                    },
                    "indices" : 26
                }
            ]
        },
        {
            "name" : "Cube.005",
            "primitives" : [
                {
                    "attributes" : {
                        "POSITION" : 27,
                        "NORMAL" : 28,
                        "TEXCOORD_0" : 29
                    },
                    "indices" : 30,
                    "material" : 3
                }
            ]
        },
        {
            "name" : "Cylinder.003",
            "primitives" : [
                {
                    "attributes" : {
                        "POSITION" : 31,
                        "NORMAL" : 32,
                        "TEXCOORD_0" : 33
                    },
                    "indices" : 34,
                    "material" : 2
                },
                {
                    "attributes" : {
                        "POSITION" : 35,
                        "NORMAL" : 36,
                        "TEXCOORD_0" : 37
                    },
                    "indices" : 38,
                    "material" : 1
                }
            ]
        }
    ],
    "textures" : [
        {
            "sampler" : 0,
            "source" : 0
        },
        {
            "sampler" : 0,
            "source" : 1
        },
        {
            "sampler" : 0,
            "source" : 2
        },
        {
            "sampler" : 0,
            "source" : 3
        }
    ],
    "images" : [
        {
            "bufferView" : 5,
            "mimeType" : "image/png",
            "name" : "PlaneCC"
        },
        {
            "bufferView" : 11,
            "mimeType" : "image/jpeg",
            "name" : "Rubber 02_normal"
        },
        {
            "bufferView" : 12,
            "mimeType" : "image/jpeg",
            "name" : "Rubber 02_diffuse"
        },
        {
            "bufferView" : 13,
            "mimeType" : "image/png",
            "name" : "Rubber 02_roughness"
        }
    ],
    "accessors" : [
        {
            "bufferView" : 0,
            "componentType" : 5126,
            "count" : 2865,
            "max" : [
                1.9091895818710327,
                1.3357279300689697,
                1.0507211685180664
            ],
            "min" : [
                -1.9091895818710327,
                0.26044368743896484,
                -1.8544825315475464
            ],
            "type" : "VEC3"
        },
        {
            "bufferView" : 1,
            "componentType" : 5126,
            "count" : 2865,
            "type" : "VEC3"
        },
        {
            "bufferView" : 2,
            "componentType" : 5126,
            "count" : 2865,
            "type" : "VEC2"
        },
        {
            "bufferView" : 3,
            "componentType" : 5126,
            "count" : 2865,
            "type" : "VEC2"
        },
        {
            "bufferView" : 4,
            "componentType" : 5123,
            "count" : 9852,
            "type" : "SCALAR"
        },
        {
            "bufferView" : 6,
            "componentType" : 5126,
            "count" : 1065,
            "max" : [
                0.6530463099479675,
                0.3808708190917969,
                0.10968879610300064
            ],
            "min" : [
                -0.6530463099479675,
                0.18804079294204712,
                -0.08043637871742249
            ],
            "type" : "VEC3"
        },
        {
            "bufferView" : 7,
            "componentType" : 5126,
            "count" : 1065,
            "type" : "VEC3"
        },
        {
            "bufferView" : 8,
            "componentType" : 5126,
            "count" : 1065,
            "type" : "VEC2"
        },
        {
            "bufferView" : 9,
            "componentType" : 5126,
            "count" : 1065,
            "type" : "VEC2"
        },
        {
            "bufferView" : 10,
            "componentType" : 5123,
            "count" : 4020,
            "type" : "SCALAR"
        },
        {
            "bufferView" : 14,
            "componentType" : 5126,
            "count" : 344,
            "max" : [
                0.6536826491355896,
                0.348233163356781,
                0.08304072171449661
            ],
            "min" : [
                -0.6536826491355896,
                0.21816778182983398,
                -0.056439757347106934
            ],
            "type" : "VEC3"
        },
        {
            "bufferView" : 15,
            "componentType" : 5126,
            "count" : 344,
            "type" : "VEC3"
        },
        {
            "bufferView" : 16,
            "componentType" : 5126,
            "count" : 344,
            "type" : "VEC2"
        },
        {
            "bufferView" : 17,
            "componentType" : 5126,
            "count" : 344,
            "type" : "VEC2"
        },
        {
            "bufferView" : 18,
            "componentType" : 5123,
            "count" : 948,
            "type" : "SCALAR"
        },
        {
            "bufferView" : 19,
            "componentType" : 5126,
            "count" : 525,
            "max" : [
                0.30544713139533997,
                0.9092936515808105,
                1.1848745346069336
            ],
            "min" : [
                -0.3259757161140442,
                0.4469766914844513,
                1.0362061262130737
            ],
            "type" : "VEC3"
        },
        {
            "bufferView" : 20,
            "componentType" : 5126,
            "count" : 525,
            "type" : "VEC3"
        },
        {
            "bufferView" : 21,
            "componentType" : 5126,
            "count" : 525,
            "type" : "VEC2"
        },
        {
            "bufferView" : 22,
            "componentType" : 5123,
            "count" : 2676,
            "type" : "SCALAR"
        },
        {
            "bufferView" : 23,
            "componentType" : 5126,
            "count" : 185,
            "max" : [
                0.19228872656822205,
                0.8621047139167786,
                0.6874058842658997
            ],
            "min" : [
                -0.19228872656822205,
                0.5242735147476196,
                0.42401576042175293
            ],
            "type" : "VEC3"
        },
        {
            "bufferView" : 24,
            "componentType" : 5126,
            "count" : 185,
            "type" : "VEC3"
        },
        {
            "bufferView" : 25,
            "componentType" : 5126,
            "count" : 185,
            "type" : "VEC2"
        },
        {
            "bufferView" : 26,
            "componentType" : 5123,
            "count" : 336,
            "type" : "SCALAR"
        },
        {
            "bufferView" : 27,
            "componentType" : 5126,
            "count" : 888,
            "max" : [
                0.12937338650226593,
                0.865631639957428,
                0.3591606616973877
            ],
            "min" : [
                -0.10366956889629364,
                0.48574209213256836,
                0.12611770629882812
            ],
            "type" : "VEC3"
        },
        {
            "bufferView" : 28,
            "componentType" : 5126,
            "count" : 888,
            "type" : "VEC3"
        },
        {
            "bufferView" : 29,
            "componentType" : 5126,
            "count" : 888,
            "type" : "VEC2"
        },
        {
            "bufferView" : 30,
            "componentType" : 5123,
            "count" : 1428,
            "type" : "SCALAR"
        },
        {
            "bufferView" : 31,
            "componentType" : 5126,
            "count" : 64,
            "max" : [
                0.2643631100654602,
                0.9975861310958862,
                0.6560173630714417
            ],
            "min" : [
                -0.2643631100654602,
                0.763378918170929,
                -0.13838349282741547
            ],
            "type" : "VEC3"
        },
        {
            "bufferView" : 32,
            "componentType" : 5126,
            "count" : 64,
            "type" : "VEC3"
        },
        {
            "bufferView" : 33,
            "componentType" : 5126,
            "count" : 64,
            "type" : "VEC2"
        },
        {
            "bufferView" : 34,
            "componentType" : 5123,
            "count" : 204,
            "type" : "SCALAR"
        },
        {
            "bufferView" : 35,
            "componentType" : 5126,
            "count" : 576,
            "max" : [
                0.02997586689889431,
                0.3208724856376648,
                0.8805587887763977
            ],
            "min" : [
                -0.02997586689889431,
                0.22170299291610718,
                0.7813892960548401
            ],
            "type" : "VEC3"
        },
        {
            "bufferView" : 36,
            "componentType" : 5126,
            "count" : 576,
            "type" : "VEC3"
        },
        {
            "bufferView" : 37,
            "componentType" : 5126,
            "count" : 576,
            "type" : "VEC2"
        },
        {
            "bufferView" : 38,
            "componentType" : 5123,
            "count" : 1332,
            "type" : "SCALAR"
        },
        {
            "bufferView" : 39,
            "componentType" : 5126,
            "count" : 355,
            "max" : [
                0.02997586689889431,
                0.3649219870567322,
                0.9246082901954651
            ],
            "min" : [
                -0.02997586689889431,
                0.1776534914970398,
                0.7373397946357727
            ],
            "type" : "VEC3"
        },
        {
            "bufferView" : 40,
            "componentType" : 5126,
            "count" : 355,
            "type" : "VEC3"
        },
        {
            "bufferView" : 41,
            "componentType" : 5126,
            "count" : 355,
            "type" : "VEC2"
        },
        {
            "bufferView" : 42,
            "componentType" : 5123,
            "count" : 1152,
            "type" : "SCALAR"
        }
    ],
    "bufferViews" : [
        {
            "buffer" : 0,
            "byteLength" : 34380,
            "byteOffset" : 0
        },
        {
            "buffer" : 0,
            "byteLength" : 34380,
            "byteOffset" : 34380
        },
        {
            "buffer" : 0,
            "byteLength" : 22920,
            "byteOffset" : 68760
        },
        {
            "buffer" : 0,
            "byteLength" : 22920,
            "byteOffset" : 91680
        },
        {
            "buffer" : 0,
            "byteLength" : 19704,
            "byteOffset" : 114600
        },
        {
            "buffer" : 0,
            "byteLength" : 528419,
            "byteOffset" : 134304
        },
        {
            "buffer" : 0,
            "byteLength" : 12780,
            "byteOffset" : 662724
        },
        {
            "buffer" : 0,
            "byteLength" : 12780,
            "byteOffset" : 675504
        },
        {
            "buffer" : 0,
            "byteLength" : 8520,
            "byteOffset" : 688284
        },
        {
            "buffer" : 0,
            "byteLength" : 8520,
            "byteOffset" : 696804
        },
        {
            "buffer" : 0,
            "byteLength" : 8040,
            "byteOffset" : 705324
        },
        {
            "buffer" : 0,
            "byteLength" : 142403,
            "byteOffset" : 713364
        },
        {
            "buffer" : 0,
            "byteLength" : 149258,
            "byteOffset" : 855768
        },
        {
            "buffer" : 0,
            "byteLength" : 912682,
            "byteOffset" : 1005028
        },
        {
            "buffer" : 0,
            "byteLength" : 4128,
            "byteOffset" : 1917712
        },
        {
            "buffer" : 0,
            "byteLength" : 4128,
            "byteOffset" : 1921840
        },
        {
            "buffer" : 0,
            "byteLength" : 2752,
            "byteOffset" : 1925968
        },
        {
            "buffer" : 0,
            "byteLength" : 2752,
            "byteOffset" : 1928720
        },
        {
            "buffer" : 0,
            "byteLength" : 1896,
            "byteOffset" : 1931472
        },
        {
            "buffer" : 0,
            "byteLength" : 6300,
            "byteOffset" : 1933368
        },
        {
            "buffer" : 0,
            "byteLength" : 6300,
            "byteOffset" : 1939668
        },
        {
            "buffer" : 0,
            "byteLength" : 4200,
            "byteOffset" : 1945968
        },
        {
            "buffer" : 0,
            "byteLength" : 5352,
            "byteOffset" : 1950168
        },
        {
            "buffer" : 0,
            "byteLength" : 2220,
            "byteOffset" : 1955520
        },
        {
            "buffer" : 0,
            "byteLength" : 2220,
            "byteOffset" : 1957740
        },
        {
            "buffer" : 0,
            "byteLength" : 1480,
            "byteOffset" : 1959960
        },
        {
            "buffer" : 0,
            "byteLength" : 672,
            "byteOffset" : 1961440
        },
        {
            "buffer" : 0,
            "byteLength" : 10656,
            "byteOffset" : 1962112
        },
        {
            "buffer" : 0,
            "byteLength" : 10656,
            "byteOffset" : 1972768
        },
        {
            "buffer" : 0,
            "byteLength" : 7104,
            "byteOffset" : 1983424
        },
        {
            "buffer" : 0,
            "byteLength" : 2856,
            "byteOffset" : 1990528
        },
        {
            "buffer" : 0,
            "byteLength" : 768,
            "byteOffset" : 1993384
        },
        {
            "buffer" : 0,
            "byteLength" : 768,
            "byteOffset" : 1994152
        },
        {
            "buffer" : 0,
            "byteLength" : 512,
            "byteOffset" : 1994920
        },
        {
            "buffer" : 0,
            "byteLength" : 408,
            "byteOffset" : 1995432
        },
        {
            "buffer" : 0,
            "byteLength" : 6912,
            "byteOffset" : 1995840
        },
        {
            "buffer" : 0,
            "byteLength" : 6912,
            "byteOffset" : 2002752
        },
        {
            "buffer" : 0,
            "byteLength" : 4608,
            "byteOffset" : 2009664
        },
        {
            "buffer" : 0,
            "byteLength" : 2664,
            "byteOffset" : 2014272
        },
        {
            "buffer" : 0,
            "byteLength" : 4260,
            "byteOffset" : 2016936
        },
        {
            "buffer" : 0,
            "byteLength" : 4260,
            "byteOffset" : 2021196
        },
        {
            "buffer" : 0,
            "byteLength" : 2840,
            "byteOffset" : 2025456
        },
        {
            "buffer" : 0,
            "byteLength" : 2304,
            "byteOffset" : 2028296
        }
    ],
    "samplers" : [
        {
            "magFilter" : 9729,
            "minFilter" : 9987
        }
    ],
    "buffers" : [
        {
            "byteLength" : 2030600,
            "uri" : "data:application/octet-stream;base64,"
        }
    ]
}
