{
    "asset" : {
        "generator" : "Khronos glTF Blender I/O v1.7.33",
        "version" : "2.0"
    },
    "extensionsUsed" : [
        "KHR_texture_transform"
    ],
    "extensionsRequired" : [
        "KHR_texture_transform"
    ],
    "scene" : 0,
    "scenes" : [
        {
            "name" : "Scene",
            "nodes" : [
                0,
                1,
                2,
                3,
                4,
                5,
                6,
                7
            ]
        }
    ],
    "nodes" : [
        {
            "name" : "Cube"
        },
        {
            "mesh" : 0,
            "name" : "Cube.001"
        },
        {
            "mesh" : 1,
            "name" : "Cylinder"
        },
        {
            "mesh" : 2,
            "name" : "Cylinder.001"
        },
        {
            "mesh" : 3,
            "name" : "Cube.002"
        },
        {
            "mesh" : 4,
            "name" : "Cube.003"
        },
        {
            "mesh" : 5,
            "name" : "Cube.004"
        },
        {
            "mesh" : 6,
            "name" : "Cylinder.002"
        }
    ],
    "materials" : [
        {
            "doubleSided" : true,
            "name" : "Material",
            "normalTexture" : {
                "extensions" : {
                    "KHR_texture_transform" : {
                        "offset" : [
                            1.756981312943853,
                            -2.999993907654058
                        ],
                        "rotation" : -0.0017453291220590472,
                        "scale" : [
                            4,
                            4
                        ]
                    }
                },
                "index" : 0
            },
            "pbrMetallicRoughness" : {
                "baseColorTexture" : {
                    "index" : 1,
                    "texCoord" : 1
                },
                "metallicFactor" : 0.8661417365074158,
                "roughnessFactor" : 0.35039371252059937
            }
        },
        {
            "doubleSided" : true,
            "name" : "Material.001",
            "pbrMetallicRoughness" : {
                "baseColorFactor" : [
                    0,
                    0,
                    0,
                    1
                ],
                "metallicFactor" : 0.834645688533783,
                "roughnessFactor" : 0.5
            }
        },
        {
            "doubleSided" : true,
            "name" : "Black Metal Paint",
            "pbrMetallicRoughness" : {}
        },
        {
            "doubleSided" : true,
            "name" : "Material.002",
            "pbrMetallicRoughness" : {}
        }
    ],
    "meshes" : [
        {
            "name" : "Cube.002",
            "primitives" : [
                {
                    "attributes" : {
                        "POSITION" : 0,
                        "NORMAL" : 1,
                        "TEXCOORD_0" : 2,
                        "TEXCOORD_1" : 3
                    },
                    "indices" : 4,
                    "material" : 0
                }
            ]
        },
        {
            "name" : "Cylinder",
            "primitives" : [
                {
                    "attributes" : {
                        "POSITION" : 5,
                        "NORMAL" : 6,
                        "TEXCOORD_0" : 7,
                        "TEXCOORD_1" : 8
                    },
                    "indices" : 9,
                    "material" : 1
                },
                {
                    "attributes" : {
                        "POSITION" : 10,
                        "NORMAL" : 11,
                        "TEXCOORD_0" : 12,
                        "TEXCOORD_1" : 13
                    },
                    "indices" : 14,
                    "material" : 2
                }
            ]
        },
        {
            "name" : "Cylinder.002",
            "primitives" : [
                {
                    "attributes" : {
                        "POSITION" : 15,
                        "NORMAL" : 16,
                        "TEXCOORD_0" : 17
                    },
                    "indices" : 18,
                    "material" : 1
                }
            ]
        },
        {
            "name" : "Cube.003",
            "primitives" : [
                {
                    "attributes" : {
                        "POSITION" : 19,
                        "NORMAL" : 20,
                        "TEXCOORD_0" : 21
                    },
                    "indices" : 22
                }
            ]
        },
        {
            "name" : "Cube.004",
            "primitives" : [
                {
                    "attributes" : {
                        "POSITION" : 23,
                        "NORMAL" : 24,
                        "TEXCOORD_0" : 25
                    },
                    "indices" : 26
                }
            ]
        },
        {
            "name" : "Cube.005",
            "primitives" : [
                {
                    "attributes" : {
                        "POSITION" : 27,
                        "NORMAL" : 28,
                        "TEXCOORD_0" : 29
                    },
                    "indices" : 30,
                    "material" : 3
                }
            ]
        },
        {
            "name" : "Cylinder.003",
            "primitives" : [
                {
                    "attributes" : {
                        "POSITION" : 31,
                        "NORMAL" : 32,
                        "TEXCOORD_0" : 33
                    },
                    "indices" : 34,
                    "material" : 2
                },
                {
                    "attributes" : {
                        "POSITION" : 35,
                        "NORMAL" : 36,
                        "TEXCOORD_0" : 37
                    },
                    "indices" : 38,
                    "material" : 1
                }
            ]
        }
    ],
    "textures" : [
        {
            "sampler" : 0,
            "source" : 0
        },
        {
            "sampler" : 0,
            "source" : 1
        }
    ],
    "images" : [
        {
            "bufferView" : 5,
            "mimeType" : "image/jpeg",
            "name" : "Metal_Panels_01_normal"
        },
        {
            "bufferView" : 6,
            "mimeType" : "image/png",
            "name" : "PlaneCC"
        }
    ],
    "accessors" : [
        {
            "bufferView" : 0,
            "componentType" : 5126,
            "count" : 2865,
            "max" : [
                1.9091895818710327,
                1.3357279300689697,
                1.0507211685180664
            ],
            "min" : [
                -1.9091895818710327,
                0.26044368743896484,
                -1.8544825315475464
            ],
            "type" : "VEC3"
        },
        {
            "bufferView" : 1,
            "componentType" : 5126,
            "count" : 2865,
            "type" : "VEC3"
        },
        {
            "bufferView" : 2,
            "componentType" : 5126,
            "count" : 2865,
            "type" : "VEC2"
        },
        {
            "bufferView" : 3,
            "componentType" : 5126,
            "count" : 2865,
            "type" : "VEC2"
        },
        {
            "bufferView" : 4,
            "componentType" : 5123,
            "count" : 9852,
            "type" : "SCALAR"
        },
        {
            "bufferView" : 7,
            "componentType" : 5126,
            "count" : 1065,
            "max" : [
                0.6530463099479675,
                0.3808708190917969,
                0.10968879610300064
            ],
            "min" : [
                -0.6530463099479675,
                0.18804079294204712,
                -0.08043637871742249
            ],
            "type" : "VEC3"
        },
        {
            "bufferView" : 8,
            "componentType" : 5126,
            "count" : 1065,
            "type" : "VEC3"
        },
        {
            "bufferView" : 9,
            "componentType" : 5126,
            "count" : 1065,
            "type" : "VEC2"
        },
        {
            "bufferView" : 10,
            "componentType" : 5126,
            "count" : 1065,
            "type" : "VEC2"
        },
        {
            "bufferView" : 11,
            "componentType" : 5123,
            "count" : 4020,
            "type" : "SCALAR"
        },
        {
            "bufferView" : 12,
            "componentType" : 5126,
            "count" : 344,
            "max" : [
                0.6536826491355896,
                0.348233163356781,
                0.08304072171449661
            ],
            "min" : [
                -0.6536826491355896,
                0.21816778182983398,
                -0.056439757347106934
            ],
            "type" : "VEC3"
        },
        {
            "bufferView" : 13,
            "componentType" : 5126,
            "count" : 344,
            "type" : "VEC3"
        },
        {
            "bufferView" : 14,
            "componentType" : 5126,
            "count" : 344,
            "type" : "VEC2"
        },
        {
            "bufferView" : 15,
            "componentType" : 5126,
            "count" : 344,
            "type" : "VEC2"
        },
        {
            "bufferView" : 16,
            "componentType" : 5123,
            "count" : 948,
            "type" : "SCALAR"
        },
        {
            "bufferView" : 17,
            "componentType" : 5126,
            "count" : 525,
            "max" : [
                0.30544713139533997,
                0.9092936515808105,
                1.1848745346069336
            ],
            "min" : [
                -0.3259757161140442,
                0.4469766914844513,
                1.0362061262130737
            ],
            "type" : "VEC3"
        },
        {
            "bufferView" : 18,
            "componentType" : 5126,
            "count" : 525,
            "type" : "VEC3"
        },
        {
            "bufferView" : 19,
            "componentType" : 5126,
            "count" : 525,
            "type" : "VEC2"
        },
        {
            "bufferView" : 20,
            "componentType" : 5123,
            "count" : 2676,
            "type" : "SCALAR"
        },
        {
            "bufferView" : 21,
            "componentType" : 5126,
            "count" : 185,
            "max" : [
                0.19228872656822205,
                0.8621047139167786,
                0.6874058842658997
            ],
            "min" : [
                -0.19228872656822205,
                0.5242735147476196,
                0.42401576042175293
            ],
            "type" : "VEC3"
        },
        {
            "bufferView" : 22,
            "componentType" : 5126,
            "count" : 185,
            "type" : "VEC3"
        },
        {
            "bufferView" : 23,
            "componentType" : 5126,
            "count" : 185,
            "type" : "VEC2"
        },
        {
            "bufferView" : 24,
            "componentType" : 5123,
            "count" : 336,
            "type" : "SCALAR"
        },
        {
            "bufferView" : 25,
            "componentType" : 5126,
            "count" : 888,
            "max" : [
                0.12937338650226593,
                0.865631639957428,
                0.3591606616973877
            ],
            "min" : [
                -0.10366956889629364,
                0.48574209213256836,
                0.12611770629882812
            ],
            "type" : "VEC3"
        },
        {
            "bufferView" : 26,
            "componentType" : 5126,
            "count" : 888,
            "type" : "VEC3"
        },
        {
            "bufferView" : 27,
            "componentType" : 5126,
            "count" : 888,
            "type" : "VEC2"
        },
        {
            "bufferView" : 28,
            "componentType" : 5123,
            "count" : 1428,
            "type" : "SCALAR"
        },
        {
            "bufferView" : 29,
            "componentType" : 5126,
            "count" : 64,
            "max" : [
                0.2643631100654602,
                0.9975861310958862,
                0.6560173630714417
            ],
            "min" : [
                -0.2643631100654602,
                0.763378918170929,
                -0.13838349282741547
            ],
            "type" : "VEC3"
        },
        {
            "bufferView" : 30,
            "componentType" : 5126,
            "count" : 64,
            "type" : "VEC3"
        },
        {
            "bufferView" : 31,
            "componentType" : 5126,
            "count" : 64,
            "type" : "VEC2"
        },
        {
            "bufferView" : 32,
            "componentType" : 5123,
            "count" : 204,
            "type" : "SCALAR"
        },
        {
            "bufferView" : 33,
            "componentType" : 5126,
            "count" : 514,
            "max" : [
                0.02997586503624916,
                0.3208724856376648,
                0.8805587887763977
            ],
            "min" : [
                -0.02997586689889431,
                0.22170299291610718,
                0.7813892960548401
            ],
            "type" : "VEC3"
        },
        {
            "bufferView" : 34,
            "componentType" : 5126,
            "count" : 514,
            "type" : "VEC3"
        },
        {
            "bufferView" : 35,
            "componentType" : 5126,
            "count" : 514,
            "type" : "VEC2"
        },
        {
            "bufferView" : 36,
            "componentType" : 5123,
            "count" : 1146,
            "type" : "SCALAR"
        },
        {
            "bufferView" : 37,
            "componentType" : 5126,
            "count" : 417,
            "max" : [
                0.02997586689889431,
                0.3649219870567322,
                0.9246082901954651
            ],
            "min" : [
                -0.02997586689889431,
                0.1776534914970398,
                0.7373397946357727
            ],
            "type" : "VEC3"
        },
        {
            "bufferView" : 38,
            "componentType" : 5126,
            "count" : 417,
            "type" : "VEC3"
        },
        {
            "bufferView" : 39,
            "componentType" : 5126,
            "count" : 417,
            "type" : "VEC2"
        },
        {
            "bufferView" : 40,
            "componentType" : 5123,
            "count" : 1338,
            "type" : "SCALAR"
        }
    ],
    "bufferViews" : [
        {
            "buffer" : 0,
            "byteLength" : 34380,
            "byteOffset" : 0
        },
        {
            "buffer" : 0,
            "byteLength" : 34380,
            "byteOffset" : 34380
        },
        {
            "buffer" : 0,
            "byteLength" : 22920,
            "byteOffset" : 68760
        },
        {
            "buffer" : 0,
            "byteLength" : 22920,
            "byteOffset" : 91680
        },
        {
            "buffer" : 0,
            "byteLength" : 19704,
            "byteOffset" : 114600
        },
        {
            "buffer" : 0,
            "byteLength" : 124569,
            "byteOffset" : 134304
        },
        {
            "buffer" : 0,
            "byteLength" : 528419,
            "byteOffset" : 258876
        },
        {
            "buffer" : 0,
            "byteLength" : 12780,
            "byteOffset" : 787296
        },
        {
            "buffer" : 0,
            "byteLength" : 12780,
            "byteOffset" : 800076
        },
        {
            "buffer" : 0,
            "byteLength" : 8520,
            "byteOffset" : 812856
        },
        {
            "buffer" : 0,
            "byteLength" : 8520,
            "byteOffset" : 821376
        },
        {
            "buffer" : 0,
            "byteLength" : 8040,
            "byteOffset" : 829896
        },
        {
            "buffer" : 0,
            "byteLength" : 4128,
            "byteOffset" : 837936
        },
        {
            "buffer" : 0,
            "byteLength" : 4128,
            "byteOffset" : 842064
        },
        {
            "buffer" : 0,
            "byteLength" : 2752,
            "byteOffset" : 846192
        },
        {
            "buffer" : 0,
            "byteLength" : 2752,
            "byteOffset" : 848944
        },
        {
            "buffer" : 0,
            "byteLength" : 1896,
            "byteOffset" : 851696
        },
        {
            "buffer" : 0,
            "byteLength" : 6300,
            "byteOffset" : 853592
        },
        {
            "buffer" : 0,
            "byteLength" : 6300,
            "byteOffset" : 859892
        },
        {
            "buffer" : 0,
            "byteLength" : 4200,
            "byteOffset" : 866192
        },
        {
            "buffer" : 0,
            "byteLength" : 5352,
            "byteOffset" : 870392
        },
        {
            "buffer" : 0,
            "byteLength" : 2220,
            "byteOffset" : 875744
        },
        {
            "buffer" : 0,
            "byteLength" : 2220,
            "byteOffset" : 877964
        },
        {
            "buffer" : 0,
            "byteLength" : 1480,
            "byteOffset" : 880184
        },
        {
            "buffer" : 0,
            "byteLength" : 672,
            "byteOffset" : 881664
        },
        {
            "buffer" : 0,
            "byteLength" : 10656,
            "byteOffset" : 882336
        },
        {
            "buffer" : 0,
            "byteLength" : 10656,
            "byteOffset" : 892992
        },
        {
            "buffer" : 0,
            "byteLength" : 7104,
            "byteOffset" : 903648
        },
        {
            "buffer" : 0,
            "byteLength" : 2856,
            "byteOffset" : 910752
        },
        {
            "buffer" : 0,
            "byteLength" : 768,
            "byteOffset" : 913608
        },
        {
            "buffer" : 0,
            "byteLength" : 768,
            "byteOffset" : 914376
        },
        {
            "buffer" : 0,
            "byteLength" : 512,
            "byteOffset" : 915144
        },
        {
            "buffer" : 0,
            "byteLength" : 408,
            "byteOffset" : 915656
        },
        {
            "buffer" : 0,
            "byteLength" : 6168,
            "byteOffset" : 916064
        },
        {
            "buffer" : 0,
            "byteLength" : 6168,
            "byteOffset" : 922232
        },
        {
            "buffer" : 0,
            "byteLength" : 4112,
            "byteOffset" : 928400
        },
        {
            "buffer" : 0,
            "byteLength" : 2292,
            "byteOffset" : 932512
        },
        {
            "buffer" : 0,
            "byteLength" : 5004,
            "byteOffset" : 934804
        },
        {
            "buffer" : 0,
            "byteLength" : 5004,
            "byteOffset" : 939808
        },
        {
            "buffer" : 0,
            "byteLength" : 3336,
            "byteOffset" : 944812
        },
        {
            "buffer" : 0,
            "byteLength" : 2676,
            "byteOffset" : 948148
        }
    ],
    "samplers" : [
        {
            "magFilter" : 9729,
            "minFilter" : 9987
        }
    ],
    "buffers" : [
        {
            "byteLength" : 950824,
            "uri" : "data:application/octet-stream;base64,"
        }
    ]
}
