{
    "asset" : {
        "generator" : "Khronos glTF Blender I/O v1.7.33",
        "version" : "2.0"
    },
    "scene" : 0,
    "scenes" : [
        {
            "name" : "Scene",
            "nodes" : [
                0,
                1
            ]
        }
    ],
    "nodes" : [
        {
            "mesh" : 0,
            "name" : "Cube"
        },
        {
            "mesh" : 1,
            "name" : "Cylinder"
        }
    ],
    "materials" : [
        {
            "doubleSided" : true,
            "name" : "Material",
            "pbrMetallicRoughness" : {
                "baseColorFactor" : [
                    0.8000000715255737,
                    0.02070367895066738,
                    0.1435665637254715,
                    1
                ],
                "metallicFactor" : 0.7706422209739685,
                "roughnessFactor" : 0.4000000059604645
            }
        }
    ],
    "meshes" : [
        {
            "name" : "Cube",
            "primitives" : [
                {
                    "attributes" : {
                        "POSITION" : 0,
                        "NORMAL" : 1,
                        "TEXCOORD_0" : 2
                    },
                    "indices" : 3,
                    "material" : 0
                }
            ]
        },
        {
            "name" : "Cylinder",
            "primitives" : [
                {
                    "attributes" : {
                        "POSITION" : 4,
                        "NORMAL" : 5,
                        "TEXCOORD_0" : 6
                    },
                    "indices" : 7
                }
            ]
        }
    ],
    "accessors" : [
        {
            "bufferView" : 0,
            "componentType" : 5126,
            "count" : 909,
            "max" : [
                2.4327445030212402,
                1.0794719457626343,
                0.29762545228004456
            ],
            "min" : [
                -2.4332571029663086,
                -1.1597903966903687,
                -0.29762545228004456
            ],
            "type" : "VEC3"
        },
        {
            "bufferView" : 1,
            "componentType" : 5126,
            "count" : 909,
            "type" : "VEC3"
        },
        {
            "bufferView" : 2,
            "componentType" : 5126,
            "count" : 909,
            "type" : "VEC2"
        },
        {
            "bufferView" : 3,
            "componentType" : 5123,
            "count" : 4938,
            "type" : "SCALAR"
        },
        {
            "bufferView" : 4,
            "componentType" : 5126,
            "count" : 1302,
            "max" : [
                -0.20833760499954224,
                0.9129952788352966,
                0.2959686517715454
            ],
            "min" : [
                -0.9159895777702332,
                0.3210577666759491,
                -0.29596883058547974
            ],
            "type" : "VEC3"
        },
        {
            "bufferView" : 5,
            "componentType" : 5126,
            "count" : 1302,
            "type" : "VEC3"
        },
        {
            "bufferView" : 6,
            "componentType" : 5126,
            "count" : 1302,
            "type" : "VEC2"
        },
        {
            "bufferView" : 7,
            "componentType" : 5123,
            "count" : 2502,
            "type" : "SCALAR"
        }
    ],
    "bufferViews" : [
        {
            "buffer" : 0,
            "byteLength" : 10908,
            "byteOffset" : 0
        },
        {
            "buffer" : 0,
            "byteLength" : 10908,
            "byteOffset" : 10908
        },
        {
            "buffer" : 0,
            "byteLength" : 7272,
            "byteOffset" : 21816
        },
        {
            "buffer" : 0,
            "byteLength" : 9876,
            "byteOffset" : 29088
        },
        {
            "buffer" : 0,
            "byteLength" : 15624,
            "byteOffset" : 38964
        },
        {
            "buffer" : 0,
            "byteLength" : 15624,
            "byteOffset" : 54588
        },
        {
            "buffer" : 0,
            "byteLength" : 10416,
            "byteOffset" : 70212
        },
        {
            "buffer" : 0,
            "byteLength" : 5004,
            "byteOffset" : 80628
        }
    ],
    "buffers" : [
        {
            "byteLength" : 85632,
            "uri" : "data:application/octet-stream;base64,"
        }
    ]
}
