{
    "asset" : {
        "generator" : "Khronos glTF Blender I/O v1.7.33",
        "version" : "2.0"
    },
    "extensionsUsed" : [
        "KHR_materials_clearcoat"
    ],
    "scene" : 0,
    "scenes" : [
        {
            "name" : "Scene",
            "nodes" : [
                0,
                1
            ]
        }
    ],
    "nodes" : [
        {
            "mesh" : 0,
            "name" : "Cylinder"
        },
        {
            "mesh" : 1,
            "name" : "Cylinder.001"
        }
    ],
    "materials" : [
        {
            "doubleSided" : true,
            "name" : "Material.003",
            "pbrMetallicRoughness" : {}
        },
        {
            "doubleSided" : true,
            "extensions" : {
                "KHR_materials_clearcoat" : {
                    "clearcoatFactor" : 1,
                    "clearcoatRoughnessFactor" : 0
                }
            },
            "name" : "Plane",
            "pbrMetallicRoughness" : {
                "baseColorTexture" : {
                    "index" : 0
                },
                "metallicFactor" : 0,
                "roughnessFactor" : 0.5
            }
        },
        {
            "doubleSided" : true,
            "name" : "Painted",
            "pbrMetallicRoughness" : {
                "baseColorTexture" : {
                    "index" : 1
                },
                "metallicFactor" : 0,
                "roughnessFactor" : 0.5
            }
        }
    ],
    "meshes" : [
        {
            "name" : "Cylinder",
            "primitives" : [
                {
                    "attributes" : {
                        "POSITION" : 0,
                        "NORMAL" : 1,
                        "TEXCOORD_0" : 2,
                        "TEXCOORD_1" : 3
                    },
                    "indices" : 4,
                    "material" : 0
                },
                {
                    "attributes" : {
                        "POSITION" : 5,
                        "NORMAL" : 6,
                        "TEXCOORD_0" : 7,
                        "TEXCOORD_1" : 8
                    },
                    "indices" : 9,
                    "material" : 1
                }
            ]
        },
        {
            "name" : "Cylinder.001",
            "primitives" : [
                {
                    "attributes" : {
                        "POSITION" : 10,
                        "NORMAL" : 11,
                        "TEXCOORD_0" : 12
                    },
                    "indices" : 13,
                    "material" : 2
                }
            ]
        }
    ],
    "textures" : [
        {
            "sampler" : 0,
            "source" : 0
        },
        {
            "sampler" : 0,
            "source" : 1
        }
    ],
    "images" : [
        {
            "bufferView" : 10,
            "mimeType" : "image/png",
            "name" : "PlaneColors"
        },
        {
            "bufferView" : 15,
            "mimeType" : "image/png",
            "name" : "Painted"
        }
    ],
    "accessors" : [
        {
            "bufferView" : 0,
            "componentType" : 5126,
            "count" : 111,
            "max" : [
                6.487038612365723,
                2.5160982608795166,
                0.9557210803031921
            ],
            "min" : [
                4.066223621368408,
                1.6108386516571045,
                -0.9557238817214966
            ],
            "type" : "VEC3"
        },
        {
            "bufferView" : 1,
            "componentType" : 5126,
            "count" : 111,
            "type" : "VEC3"
        },
        {
            "bufferView" : 2,
            "componentType" : 5126,
            "count" : 111,
            "type" : "VEC2"
        },
        {
            "bufferView" : 3,
            "componentType" : 5126,
            "count" : 111,
            "type" : "VEC2"
        },
        {
            "bufferView" : 4,
            "componentType" : 5123,
            "count" : 336,
            "type" : "SCALAR"
        },
        {
            "bufferView" : 5,
            "componentType" : 5126,
            "count" : 1045,
            "max" : [
                7.922990322113037,
                4.778013706207275,
                10.941975593566895
            ],
            "min" : [
                -7.297204971313477,
                -0.016466498374938965,
                -10.941975593566895
            ],
            "type" : "VEC3"
        },
        {
            "bufferView" : 6,
            "componentType" : 5126,
            "count" : 1045,
            "type" : "VEC3"
        },
        {
            "bufferView" : 7,
            "componentType" : 5126,
            "count" : 1045,
            "type" : "VEC2"
        },
        {
            "bufferView" : 8,
            "componentType" : 5126,
            "count" : 1045,
            "type" : "VEC2"
        },
        {
            "bufferView" : 9,
            "componentType" : 5123,
            "count" : 3648,
            "type" : "SCALAR"
        },
        {
            "bufferView" : 11,
            "componentType" : 5126,
            "count" : 394,
            "max" : [
                5.017865180969238,
                0.26437291502952576,
                0.08008874952793121
            ],
            "min" : [
                4.574614524841309,
                -0.17887815833091736,
                -0.0663951188325882
            ],
            "type" : "VEC3"
        },
        {
            "bufferView" : 12,
            "componentType" : 5126,
            "count" : 394,
            "type" : "VEC3"
        },
        {
            "bufferView" : 13,
            "componentType" : 5126,
            "count" : 394,
            "type" : "VEC2"
        },
        {
            "bufferView" : 14,
            "componentType" : 5123,
            "count" : 1908,
            "type" : "SCALAR"
        }
    ],
    "bufferViews" : [
        {
            "buffer" : 0,
            "byteLength" : 1332,
            "byteOffset" : 0
        },
        {
            "buffer" : 0,
            "byteLength" : 1332,
            "byteOffset" : 1332
        },
        {
            "buffer" : 0,
            "byteLength" : 888,
            "byteOffset" : 2664
        },
        {
            "buffer" : 0,
            "byteLength" : 888,
            "byteOffset" : 3552
        },
        {
            "buffer" : 0,
            "byteLength" : 672,
            "byteOffset" : 4440
        },
        {
            "buffer" : 0,
            "byteLength" : 12540,
            "byteOffset" : 5112
        },
        {
            "buffer" : 0,
            "byteLength" : 12540,
            "byteOffset" : 17652
        },
        {
            "buffer" : 0,
            "byteLength" : 8360,
            "byteOffset" : 30192
        },
        {
            "buffer" : 0,
            "byteLength" : 8360,
            "byteOffset" : 38552
        },
        {
            "buffer" : 0,
            "byteLength" : 7296,
            "byteOffset" : 46912
        },
        {
            "buffer" : 0,
            "byteLength" : 904980,
            "byteOffset" : 54208
        },
        {
            "buffer" : 0,
            "byteLength" : 4728,
            "byteOffset" : 959188
        },
        {
            "buffer" : 0,
            "byteLength" : 4728,
            "byteOffset" : 963916
        },
        {
            "buffer" : 0,
            "byteLength" : 3152,
            "byteOffset" : 968644
        },
        {
            "buffer" : 0,
            "byteLength" : 3816,
            "byteOffset" : 971796
        },
        {
            "buffer" : 0,
            "byteLength" : 78143,
            "byteOffset" : 975612
        }
    ],
    "samplers" : [
        {
            "magFilter" : 9729,
            "minFilter" : 9987
        }
    ],
    "buffers" : [
        {
            "byteLength" : 1053756,
            "uri" : "data:application/octet-stream;base64,"
        }
    ]
}
