{
    "asset" : {
        "generator" : "Khronos glTF Blender I/O v1.7.33",
        "version" : "2.0"
    },
    "scene" : 0,
    "scenes" : [
        {
            "name" : "Scene",
            "nodes" : [
                0,
                1
            ]
        }
    ],
    "nodes" : [
        {
            "mesh" : 0,
            "name" : "Cube"
        },
        {
            "mesh" : 1,
            "name" : "Cylinder"
        }
    ],
    "materials" : [
        {
            "doubleSided" : true,
            "name" : "Material",
            "pbrMetallicRoughness" : {
                "baseColorFactor" : [
                    0.10356748849153519,
                    0.11259777843952179,
                    0.11906270682811737,
                    1
                ],
                "metallicFactor" : 0.7706422209739685,
                "roughnessFactor" : 0.4000000059604645
            }
        },
        {
            "doubleSided" : true,
            "name" : "Material.001",
            "pbrMetallicRoughness" : {
                "baseColorFactor" : [
                    0,
                    0,
                    0,
                    1
                ],
                "metallicFactor" : 0,
                "roughnessFactor" : 0.5
            }
        }
    ],
    "meshes" : [
        {
            "name" : "Cube",
            "primitives" : [
                {
                    "attributes" : {
                        "POSITION" : 0,
                        "NORMAL" : 1,
                        "TEXCOORD_0" : 2
                    },
                    "indices" : 3,
                    "material" : 0
                },
                {
                    "attributes" : {
                        "POSITION" : 4,
                        "NORMAL" : 5,
                        "TEXCOORD_0" : 6
                    },
                    "indices" : 7,
                    "material" : 1
                }
            ]
        },
        {
            "name" : "Cylinder",
            "primitives" : [
                {
                    "attributes" : {
                        "POSITION" : 8,
                        "NORMAL" : 9,
                        "TEXCOORD_0" : 10
                    },
                    "indices" : 11,
                    "material" : 0
                }
            ]
        }
    ],
    "accessors" : [
        {
            "bufferView" : 0,
            "componentType" : 5126,
            "count" : 10068,
            "max" : [
                2.4269919395446777,
                1.062542200088501,
                0.27974388003349304
            ],
            "min" : [
                -1.8071167469024658,
                -0.4403301477432251,
                -0.27974390983581543
            ],
            "type" : "VEC3"
        },
        {
            "bufferView" : 1,
            "componentType" : 5126,
            "count" : 10068,
            "type" : "VEC3"
        },
        {
            "bufferView" : 2,
            "componentType" : 5126,
            "count" : 10068,
            "type" : "VEC2"
        },
        {
            "bufferView" : 3,
            "componentType" : 5123,
            "count" : 53952,
            "type" : "SCALAR"
        },
        {
            "bufferView" : 4,
            "componentType" : 5126,
            "count" : 4436,
            "max" : [
                -1.1844756603240967,
                0.461686372756958,
                0.25209349393844604
            ],
            "min" : [
                -2.4314382076263428,
                -1.1550698280334473,
                -0.25209352374076843
            ],
            "type" : "VEC3"
        },
        {
            "bufferView" : 5,
            "componentType" : 5126,
            "count" : 4436,
            "type" : "VEC3"
        },
        {
            "bufferView" : 6,
            "componentType" : 5126,
            "count" : 4436,
            "type" : "VEC2"
        },
        {
            "bufferView" : 7,
            "componentType" : 5123,
            "count" : 24720,
            "type" : "SCALAR"
        },
        {
            "bufferView" : 8,
            "componentType" : 5126,
            "count" : 925,
            "max" : [
                -0.20833760499954224,
                0.9129952788352966,
                0.2959686517715454
            ],
            "min" : [
                -0.9159895777702332,
                0.3210577666759491,
                -0.29596883058547974
            ],
            "type" : "VEC3"
        },
        {
            "bufferView" : 9,
            "componentType" : 5126,
            "count" : 925,
            "type" : "VEC3"
        },
        {
            "bufferView" : 10,
            "componentType" : 5126,
            "count" : 925,
            "type" : "VEC2"
        },
        {
            "bufferView" : 11,
            "componentType" : 5123,
            "count" : 2502,
            "type" : "SCALAR"
        }
    ],
    "bufferViews" : [
        {
            "buffer" : 0,
            "byteLength" : 120816,
            "byteOffset" : 0
        },
        {
            "buffer" : 0,
            "byteLength" : 120816,
            "byteOffset" : 120816
        },
        {
            "buffer" : 0,
            "byteLength" : 80544,
            "byteOffset" : 241632
        },
        {
            "buffer" : 0,
            "byteLength" : 107904,
            "byteOffset" : 322176
        },
        {
            "buffer" : 0,
            "byteLength" : 53232,
            "byteOffset" : 430080
        },
        {
            "buffer" : 0,
            "byteLength" : 53232,
            "byteOffset" : 483312
        },
        {
            "buffer" : 0,
            "byteLength" : 35488,
            "byteOffset" : 536544
        },
        {
            "buffer" : 0,
            "byteLength" : 49440,
            "byteOffset" : 572032
        },
        {
            "buffer" : 0,
            "byteLength" : 11100,
            "byteOffset" : 621472
        },
        {
            "buffer" : 0,
            "byteLength" : 11100,
            "byteOffset" : 632572
        },
        {
            "buffer" : 0,
            "byteLength" : 7400,
            "byteOffset" : 643672
        },
        {
            "buffer" : 0,
            "byteLength" : 5004,
            "byteOffset" : 651072
        }
    ],
    "buffers" : [
        {
            "byteLength" : 656076,
            "uri" : "data:application/octet-stream;base64,"
        }
    ]
}
