{
    "asset" : {
        "generator" : "Khronos glTF Blender I/O v1.7.33",
        "version" : "2.0"
    },
    "scene" : 0,
    "scenes" : [
        {
            "name" : "Scene",
            "nodes" : [
                0,
                1,
                2
            ]
        }
    ],
    "nodes" : [
        {
            "mesh" : 0,
            "name" : "Cube",
            "rotation" : [
                -0.491812527179718,
                0.4150250554084778,
                -0.4129481911659241,
                0.6444753408432007
            ],
            "scale" : [
                0.11461033672094345,
                0.11461037397384644,
                0.11461039632558823
            ],
            "translation" : [
                0.0196610689163208,
                0.045176297426223755,
                -0.09419545531272888
            ]
        },
        {
            "mesh" : 1,
            "name" : "Cube.001",
            "rotation" : [
                0,
                0,
                0.6530057787895203,
                0.7573529481887817
            ],
            "scale" : [
                0.11461035907268524,
                0.11461035907268524,
                0.11461035907268524
            ],
            "translation" : [
                -0.040816180408000946,
                0.02027445286512375,
                -0.03367997333407402
            ]
        },
        {
            "mesh" : 2,
            "name" : "Cube.002",
            "rotation" : [
                0.456802099943161,
                0.7890779972076416,
                -0.3444857597351074,
                -0.22364605963230133
            ],
            "scale" : [
                0.11461033672094345,
                0.11461035907268524,
                0.11461035907268524
            ],
            "translation" : [
                -0.02987501211464405,
                0.02665220946073532,
                -0.1257060170173645
            ]
        }
    ],
    "materials" : [
        {
            "doubleSided" : true,
            "name" : "Rust Procedural 2",
            "pbrMetallicRoughness" : {}
        }
    ],
    "meshes" : [
        {
            "name" : "Cube.001",
            "primitives" : [
                {
                    "attributes" : {
                        "POSITION" : 0,
                        "NORMAL" : 1,
                        "TEXCOORD_0" : 2,
                        "TEXCOORD_1" : 3
                    },
                    "indices" : 4,
                    "material" : 0
                }
            ]
        },
        {
            "name" : "Cube.002",
            "primitives" : [
                {
                    "attributes" : {
                        "POSITION" : 5,
                        "NORMAL" : 6,
                        "TEXCOORD_0" : 7,
                        "TEXCOORD_1" : 8
                    },
                    "indices" : 9,
                    "material" : 0
                }
            ]
        },
        {
            "name" : "Cube.003",
            "primitives" : [
                {
                    "attributes" : {
                        "POSITION" : 10,
                        "NORMAL" : 11,
                        "TEXCOORD_0" : 12,
                        "TEXCOORD_1" : 13
                    },
                    "indices" : 9,
                    "material" : 0
                }
            ]
        }
    ],
    "accessors" : [
        {
            "bufferView" : 0,
            "componentType" : 5126,
            "count" : 636,
            "max" : [
                0.2559710443019867,
                0.8398762941360474,
                0.2505606710910797
            ],
            "min" : [
                -0.11692743748426437,
                -1.2802314758300781,
                -0.243327796459198
            ],
            "type" : "VEC3"
        },
        {
            "bufferView" : 1,
            "componentType" : 5126,
            "count" : 636,
            "type" : "VEC3"
        },
        {
            "bufferView" : 2,
            "componentType" : 5126,
            "count" : 636,
            "type" : "VEC2"
        },
        {
            "bufferView" : 3,
            "componentType" : 5126,
            "count" : 636,
            "type" : "VEC2"
        },
        {
            "bufferView" : 4,
            "componentType" : 5123,
            "count" : 2526,
            "type" : "SCALAR"
        },
        {
            "bufferView" : 5,
            "componentType" : 5126,
            "count" : 100,
            "max" : [
                0.2243330478668213,
                0.576706051826477,
                -0.25394749641418457
            ],
            "min" : [
                -0.15022331476211548,
                -0.9813075661659241,
                -0.6070113182067871
            ],
            "type" : "VEC3"
        },
        {
            "bufferView" : 6,
            "componentType" : 5126,
            "count" : 100,
            "type" : "VEC3"
        },
        {
            "bufferView" : 7,
            "componentType" : 5126,
            "count" : 100,
            "type" : "VEC2"
        },
        {
            "bufferView" : 8,
            "componentType" : 5126,
            "count" : 100,
            "type" : "VEC2"
        },
        {
            "bufferView" : 9,
            "componentType" : 5123,
            "count" : 156,
            "type" : "SCALAR"
        },
        {
            "bufferView" : 10,
            "componentType" : 5126,
            "count" : 100,
            "max" : [
                0.2243330478668213,
                0.576706051826477,
                -0.25394749641418457
            ],
            "min" : [
                -0.15022331476211548,
                -0.9813075661659241,
                -0.6070113182067871
            ],
            "type" : "VEC3"
        },
        {
            "bufferView" : 11,
            "componentType" : 5126,
            "count" : 100,
            "type" : "VEC3"
        },
        {
            "bufferView" : 12,
            "componentType" : 5126,
            "count" : 100,
            "type" : "VEC2"
        },
        {
            "bufferView" : 13,
            "componentType" : 5126,
            "count" : 100,
            "type" : "VEC2"
        }
    ],
    "bufferViews" : [
        {
            "buffer" : 0,
            "byteLength" : 7632,
            "byteOffset" : 0
        },
        {
            "buffer" : 0,
            "byteLength" : 7632,
            "byteOffset" : 7632
        },
        {
            "buffer" : 0,
            "byteLength" : 5088,
            "byteOffset" : 15264
        },
        {
            "buffer" : 0,
            "byteLength" : 5088,
            "byteOffset" : 20352
        },
        {
            "buffer" : 0,
            "byteLength" : 5052,
            "byteOffset" : 25440
        },
        {
            "buffer" : 0,
            "byteLength" : 1200,
            "byteOffset" : 30492
        },
        {
            "buffer" : 0,
            "byteLength" : 1200,
            "byteOffset" : 31692
        },
        {
            "buffer" : 0,
            "byteLength" : 800,
            "byteOffset" : 32892
        },
        {
            "buffer" : 0,
            "byteLength" : 800,
            "byteOffset" : 33692
        },
        {
            "buffer" : 0,
            "byteLength" : 312,
            "byteOffset" : 34492
        },
        {
            "buffer" : 0,
            "byteLength" : 1200,
            "byteOffset" : 34804
        },
        {
            "buffer" : 0,
            "byteLength" : 1200,
            "byteOffset" : 36004
        },
        {
            "buffer" : 0,
            "byteLength" : 800,
            "byteOffset" : 37204
        },
        {
            "buffer" : 0,
            "byteLength" : 800,
            "byteOffset" : 38004
        }
    ],
    "buffers" : [
        {
            "byteLength" : 38804,
            "uri" : "data:application/octet-stream;base64,"
        }
    ]
}
